<?xml version="1.0" encoding="utf-8"?>
<!-- Generator: Adobe Illustrator 20.1.0, SVG Export Plug-In . SVG Version: 6.00 Build 0)  -->
<svg version="1.1" xmlns="http://www.w3.org/2000/svg" xmlns:xlink="http://www.w3.org/1999/xlink" x="0px" y="0px"
	 viewBox="0 0 612 792" style="enable-background:new 0 0 612 792;" xml:space="preserve">
<style type="text/css">
	.st0{opacity:0.6;fill:#FFFFFF;stroke:#3E56A6;stroke-linejoin:round;stroke-miterlimit:10;}
	.st1{opacity:0.5;fill:#FFFFFF;stroke:#3E56A6;stroke-linejoin:round;stroke-miterlimit:10;}
	.st2{fill:#3E56A6;}
	.st3{font-family:'Arial-BoldMT';}
	.st4{font-size:9.152px;}
	.st5{opacity:0.6;fill:#FFFFFF;stroke:#6C9A40;stroke-linejoin:round;stroke-miterlimit:10;}
	.st6{opacity:0.5;fill:#FFFFFF;stroke:#6C9A40;stroke-linejoin:round;stroke-miterlimit:10;}
	.st7{fill:#6C9A40;}
	.st8{opacity:0.6;fill:#FFFFFF;stroke:#478466;stroke-linejoin:round;stroke-miterlimit:10;}
	.st9{opacity:0.5;fill:#FFFFFF;stroke:#478466;stroke-linejoin:round;stroke-miterlimit:10;}
	.st10{fill:#2E915E;}
	.st11{opacity:0.6;fill:#4AC7EE;stroke:#FFFFFF;stroke-miterlimit:10;}
	.st12{opacity:0.5;fill:#BDE6F4;stroke:#FFFFFF;stroke-miterlimit:10;}
	.st13{opacity:0.5;fill:#42B0D2;stroke:#FFFFFF;stroke-miterlimit:10;}
	.st14{fill:#009ED1;}
	.st15{opacity:0.6;fill:#FFFFFF;stroke:#1B86C8;stroke-miterlimit:10;}
	.st16{opacity:0.5;fill:#FFFFFF;stroke:#1B86C8;stroke-miterlimit:10;}
	.st17{fill:#49ACD3;}
	.st18{font-size:9.9171px;}
	.st19{opacity:0.6;}
	.st20{fill:#FFFFFF;stroke:#1B86C8;stroke-miterlimit:10;}
</style>
<g id="diagram">
	<g id="floor1">
		<g id="floor1-badge">
			<polygon class="st0" points="374.9,641.4 161,641.4 236.7,530.6 450.6,530.6 			"/>
			<polygon class="st0" points="374.9,621.1 161,621.1 236.7,510.3 450.6,510.3 			"/>
			<rect x="161" y="621.1" class="st1" width="213.9" height="20.4"/>
			<polygon class="st1" points="374.9,641.4 374.9,621.1 450.6,510.3 450.6,530.6 			"/>
		</g>
		<g id="floor1-title">
			<text transform="matrix(1 0 0 1 184.1758 614.4651)" class="st2 st3 st4">Infrastructure</text>
		</g>
	</g>
	<g id="floor2">
		<g id="floor2-badge">
			<g>
				<polygon class="st5" points="370.1,557 156.2,557 231.9,446.2 445.8,446.2 				"/>
				<polygon class="st5" points="370.1,536.6 156.2,536.6 231.9,425.8 445.8,425.8 				"/>
				<rect x="156.9" y="536.6" class="st6" width="213.9" height="20.4"/>
				<polygon class="st6" points="370.8,557 370.8,536.6 446.5,425.8 446.5,446.2 				"/>
			</g>
		</g>
		<text id="floor2-title" transform="matrix(1 0 0 1 180.7461 529.4709)" class="st7 st3 st4">Provisioning</text>
	</g>
	<g id="floor3">
		<g id="floor3-badge">
			<g>
				<polygon class="st8" points="293.1,475.5 156.9,475.5 232.7,364.8 368.8,364.8 				"/>
				<polygon class="st8" points="293.1,455.2 156.9,455.2 232.7,344.4 368.8,344.4 				"/>
				<rect x="156.9" y="455.2" class="st9" width="136.1" height="20.4"/>
				<polygon class="st9" points="293.1,475.5 293.1,455.2 368.8,344.4 368.8,364.8 				"/>
			</g>
		</g>
		<g id="floor3-title">
			<text transform="matrix(1 0 0 1 181.0273 448.5432)" class="st10 st3 st4">Runtime</text>
		</g>
	</g>
	<g id="floor4">
		<g id="floor4-badge">
			<polygon class="st11" points="293.1,403.3 156.9,403.3 232.7,292.5 368.8,292.5 			"/>
			<polygon class="st11" points="293.1,382.9 156.9,382.9 232.7,272.2 368.8,272.2 			"/>
			<rect x="156.9" y="382.9" class="st12" width="136.1" height="20.4"/>
			<polygon class="st13" points="293.1,403.3 293.1,382.9 368.8,272.2 368.8,292.5 			"/>
		</g>
		<g id="floor4-title">
			<text transform="matrix(1 0 0 1 172.8887 374.6536)" class="st14 st3 st4">Orchestration </text>
		</g>
	</g>
	<g id="floor5">
		<g id="floor5-badge">
			<polygon class="st15" points="370.8,282.2 156.9,282.2 232.7,171.4 446.5,171.4 			"/>
			<polygon class="st15" points="370.8,261.8 156.9,261.8 232.7,151.1 446.5,151.1 			"/>
			<rect x="156.9" y="261.8" class="st16" width="213.9" height="20.4"/>
			<polygon class="st16" points="370.8,282.2 370.8,261.8 446.5,151.1 446.5,171.4 			"/>
		</g>
		<g id="floor5-title">
			<text transform="matrix(1 0 0 1 175.6309 250.1526)" class="st17 st3 st18">Application &amp; Development</text>
		</g>
	</g>
	<g id="floor6">
		<g id="floor6-badge" class="st19">
			<g>
				<polygon class="st15" points="336.8,371.6 337.6,477.7 409.7,369.6 409,263.6 				"/>
				<polygon class="st15" points="346.9,371.6 347.7,477.7 419.8,369.6 419.1,263.6 				"/>
			</g>
			<polygon class="st20" points="346.9,371.6 336.8,371.6 337.6,477.7 347.7,477.7 			"/>
			<polygon class="st20" points="419.1,263.6 409,263.6 336.8,371.6 346.9,371.6 			"/>
		</g>
	</g>
	<g id="floor7x">
		<g id="floor7-badge" class="st19">
			<g>
				<polygon class="st15" points="372.2,371.6 372.9,477.7 445.1,369.6 444.3,263.6 				"/>
				<polygon class="st15" points="382.3,371.6 383,477.7 455.2,369.6 454.4,263.6 				"/>
			</g>
			<polygon class="st20" points="382.3,371.6 372.2,371.6 372.9,477.7 383,477.7 			"/>
			<polygon class="st20" points="454.4,263.6 444.3,263.6 372.2,371.6 382.3,371.6 			"/>
		</g>
	</g>
</g>
<g id="base">
	<rect x="458.6" y="168.8" class="st2" width="43.9" height="43.9"/>
</g>
</svg>
